<svg height="480pt" viewBox="0 0 480 480" width="480pt" xmlns="http://www.w3.org/2000/svg"><path d="m224 136c-.027344-2.730469-.523438-5.4375-1.472656-8h34.945312c-.949218 2.5625-1.445312 5.269531-1.472656 8 0 13.253906 10.746094 24 24 24s24-10.746094 24-24c-.027344-2.730469-.523438-5.4375-1.472656-8h9.472656c4.125.019531 7.585938-3.097656 8-7.199219l8-80c.226562-2.257812-.515625-4.503906-2.039062-6.183593-1.527344-1.675782-3.691407-2.628907-5.960938-2.617188h-156.488281l-3.589844-25.136719c-.566406-3.9375-3.941406-6.863281-7.921875-6.863281h-24v16h17.0625l15.015625 105.136719c.566406 3.9375 3.941406 6.863281 7.921875 6.863281h9.472656c-.949218 2.5625-1.445312 5.269531-1.472656 8 0 13.253906 10.746094 24 24 24s24-10.746094 24-24zm64 0c0 4.417969-3.582031 8-8 8s-8-3.582031-8-8 3.582031-8 8-8 8 3.582031 8 8zm-122.199219-88h145.398438l-6.398438 64h-129.863281zm34.199219 96c-4.417969 0-8-3.582031-8-8s3.582031-8 8-8 8 3.582031 8 8-3.582031 8-8 8zm0 0"/><path d="m473.945312 224.238281-121.945312-30.484375v-25.753906c0-4.417969-3.582031-8-8-8h-208c-4.417969 0-8 3.582031-8 8v25.753906l-121.945312 30.484375c-3.558594.894531-6.054688 4.09375-6.054688 7.761719v240c0 4.417969 3.582031 8 8 8h464c4.417969 0 8-3.582031 8-8v-240c0-3.667969-2.496094-6.867188-6.054688-7.761719zm-457.945312 14.007813 112-28v253.753906h-112zm128-62.246094h192v288h-40v-72c0-4.417969-3.582031-8-8-8h-96c-4.417969 0-8 3.582031-8 8v72h-40zm56 224h32v64h-32zm48 64v-64h32v64zm216 0h-112v-253.753906l112 28zm0 0"/><path d="m224 368c4.417969 0 8-3.582031 8-8v-32c0-4.417969-3.582031-8-8-8h-56c-4.417969 0-8 3.582031-8 8v32c0 4.417969 3.582031 8 8 8zm-48-32h40v16h-40zm0 0"/><path d="m256 368h56c4.417969 0 8-3.582031 8-8v-32c0-4.417969-3.582031-8-8-8h-56c-4.417969 0-8 3.582031-8 8v32c0 4.417969 3.582031 8 8 8zm8-32h40v16h-40zm0 0"/><path d="m168 304h56c4.417969 0 8-3.582031 8-8v-32c0-4.417969-3.582031-8-8-8h-56c-4.417969 0-8 3.582031-8 8v32c0 4.417969 3.582031 8 8 8zm8-32h40v16h-40zm0 0"/><path d="m256 304h56c4.417969 0 8-3.582031 8-8v-32c0-4.417969-3.582031-8-8-8h-56c-4.417969 0-8 3.582031-8 8v32c0 4.417969 3.582031 8 8 8zm8-32h40v16h-40zm0 0"/><path d="m168 240h56c4.417969 0 8-3.582031 8-8v-32c0-4.417969-3.582031-8-8-8h-56c-4.417969 0-8 3.582031-8 8v32c0 4.417969 3.582031 8 8 8zm8-32h40v16h-40zm0 0"/><path d="m256 240h56c4.417969 0 8-3.582031 8-8v-32c0-4.417969-3.582031-8-8-8h-56c-4.417969 0-8 3.582031-8 8v32c0 4.417969 3.582031 8 8 8zm8-32h40v16h-40zm0 0"/><path d="m376 368h64c4.417969 0 8-3.582031 8-8v-32c0-4.417969-3.582031-8-8-8h-64c-4.417969 0-8 3.582031-8 8v32c0 4.417969 3.582031 8 8 8zm8-32h48v16h-48zm0 0"/><path d="m376 304h64c4.417969 0 8-3.582031 8-8v-32c0-4.417969-3.582031-8-8-8h-64c-4.417969 0-8 3.582031-8 8v32c0 4.417969 3.582031 8 8 8zm8-32h48v16h-48zm0 0"/><path d="m376 448h64c4.417969 0 8-3.582031 8-8v-48c0-4.417969-3.582031-8-8-8h-64c-4.417969 0-8 3.582031-8 8v48c0 4.417969 3.582031 8 8 8zm8-48h48v32h-48zm0 0"/><path d="m104 320h-64c-4.417969 0-8 3.582031-8 8v32c0 4.417969 3.582031 8 8 8h64c4.417969 0 8-3.582031 8-8v-32c0-4.417969-3.582031-8-8-8zm-8 32h-48v-16h48zm0 0"/><path d="m104 256h-64c-4.417969 0-8 3.582031-8 8v32c0 4.417969 3.582031 8 8 8h64c4.417969 0 8-3.582031 8-8v-32c0-4.417969-3.582031-8-8-8zm-8 32h-48v-16h48zm0 0"/><path d="m104 384h-64c-4.417969 0-8 3.582031-8 8v48c0 4.417969 3.582031 8 8 8h64c4.417969 0 8-3.582031 8-8v-48c0-4.417969-3.582031-8-8-8zm-8 48h-48v-32h48zm0 0"/></svg>